<svg xmlns="http://www.w3.org/2000/svg" width="256" height="256"><path fill-opacity=".016" d="M0 128.004v128.004l128.25-.254 128.25-.254.254-127.75L257.008 0H0v128.004m.485.496c0 70.4.119 99.053.265 63.672.146-35.38.146-92.98 0-128C.604 29.153.485 58.1.485 128.5" fill="#1976D2" fill-rule="evenodd"/><path fill-opacity=".195" d="M129 29c-17.623.659-17.751 1.062-.5 1.571 11.229.331 23.325 2.063 16.25 2.327L142 33l2 2c1.1 1.1 2 2.862 2 3.917 0 1.054.466 2.072 1.036 2.262.57.19 1.652 2.136 2.404 4.324.932 2.711 2.116 4.176 3.714 4.595 2.248.589 2.221.645-.654 1.336-1.65.397-3.9 1.103-5 1.568-1.1.466-3.125 1.065-4.5 1.33-2.647.511-14.567 3.517-16.851 4.25-.998.32-.805.89.734 2.176 2.086 1.742 3.392 9.531 4.82 28.751l.446 6.009-8.385 7.991c-13.667 13.025-20.634 18.689-21.971 17.863-.671-.415-3.261-1.139-5.756-1.609A956.71 956.71 0 0187 118.006a1661.54 1661.54 0 00-9.5-1.871c-7.703-1.492-8.492-1.998-8.57-5.492-.039-1.729-.437-4.043-.886-5.143-.747-1.834-.876-1.768-1.547.787-.403 1.533-.453 4.184-.111 5.893.453 2.264-.115 4.626-2.096 8.713-1.494 3.084-3.071 5.757-3.503 5.94-.433.184-.787 1.196-.787 2.25S59.656 131 59.236 131c-.42 0-1.6 1.912-2.621 4.25-1.72 3.937-1.918 4.085-2.697 2.017-.573-1.52-1.362-2.034-2.47-1.609-1.023.393-2.434-.265-3.789-1.766-1.981-2.195-2.821-3.703-5.646-10.142C40.246 119.724 38 109.671 38 105.79c0-2.085-.42-3.79-.933-3.79-1.638 0-2.169-3.681-.925-6.412.921-2.021.928-2.918.031-3.815C35.276 90.876 35 91.352 35 93.8c0 1.76-.45 3.2-1 3.2s-1 1.602-1 3.559c0 2.118-.405 3.309-1 2.941-.622-.384-1 1.53-1 5.063 0 4.433-.275 5.453-1.25 4.642-.993-.826-1.189 2.231-.952 14.878.172 9.204.699 15.917 1.25 15.917.523 0 .952 2.25.952 5s.45 5 1 5 1 1.323 1 2.941c0 1.618.45 3.219 1 3.559.55.34 1 1.716 1 3.059 0 1.343.45 2.441 1 2.441s1 .632 1 1.405c0 1.666 4.17 9.948 5.25 10.428.413.184.75 1.196.75 2.25s.374 1.917.831 1.917c.457 0 1.47 1.227 2.25 2.727.78 1.5 2.863 4.273 4.627 6.164 1.764 1.89 2.932 3.882 2.595 4.427-.336.545-.153.707.409.36 1.269-.784 4.574 2.703 3.54 3.736-.414.414-.077.603.748.419.825-.183 1.387.23 1.25.917-.138.688.312 1.138 1 1 .687-.137 1.137.313 1 1-.138.688.312 1.138 1 1 .687-.137 1.137.313 1 1-.138.688.087 1.141.5 1.008 1.194-.386 5.308 2.85 4.567 3.592-.369.369.196 1.327 1.256 2.129 1.75 1.323 1.766 1.46.177 1.489-4.557.083.415 5.821 8.415 9.711 10.993 5.346 22.551 7.765 36.835 7.711 9.692-.037 11.04.099 6 .608-4.28.433.43.716 13.789.829 21.816.186 33.781-.744 49.974-3.884 17.104-3.316 37.533-10.944 38.908-14.527.779-2.032.786-2.029-7.171-3.754-3.85-.835-9.628-2.3-12.839-3.255-4.987-1.483-5.97-1.53-6.735-.322-.765 1.209-.898 1.202-.911-.043-.008-.802 1.651-3.164 3.688-5.25s3.135-3.792 2.441-3.792-.979-.457-.634-1.016c.346-.559 1.058-.751 1.584-.426.525.325.832-.005.681-.734-.151-.728.321-1.2 1.049-1.049.729.151 1.076-.129.771-.621-.565-.914 2.583-5.136 4.079-5.47a.751.751 0 00.558-.989c-.342-1.026 1.952-4.335 3.268-4.714.55-.158.859-1.119.687-2.134-.172-1.016.166-1.847.75-1.847.585 0 1.063-.9 1.063-2s.45-2 1-2 1-.9 1-2 .45-2 1-2 1-.9 1-2 .45-2 1-2 1-1.35 1-3 .45-3 1-3 1-1.602 1-3.559c0-2.118.405-3.309 1-2.941.621.384 1-1.509 1-5s.379-5.384 1-5c1.023.632 1.255-4.466 1.002-22-.176-12.205-5.039-30.206-10.173-37.654-1.006-1.46-1.829-3.148-1.829-3.75 0-.603-.45-1.096-1-1.096s-1-.9-1-2-.374-2-.831-2c-.457 0-1.456-1.237-2.22-2.75-1.804-3.574-22.625-24.395-26.199-26.199-1.512-.764-2.75-1.763-2.75-2.22 0-.457-.9-.831-2-.831s-2-.45-2-1-.9-1-2-1-2-.45-2-1-.9-1-2-1-2-.45-2-1-.9-1-2-1-2-.45-2-1-1.35-1-3-1-3-.45-3-1-1.602-1-3.559-1c-2.118 0-3.309-.405-2.941-1 .387-.626-1.72-1-5.632-1-5.71 0-6.083-.127-4.309-1.468 1.067-.808 1.716-1.388 1.441-1.29-.275.098-7.475.439-16 .758m-24.139 2.893c1.241.786 5.139.4 5.139-.51 0-.21-1.463-.376-3.25-.368-2.21.011-2.814.292-1.889.878M97 33.393c0 .949 2.993 1.427 3.527.563.325-.526-.336-.956-1.468-.956S97 33.177 97 33.393m54.269 1.3c.973.254 2.323.237 3-.037.677-.274-.119-.481-1.769-.461-1.65.02-2.204.244-1.231.498M83.5 39.343c-4.4 2.279-8.872 4.934-9.939 5.9-1.066.966-2.296 1.757-2.733 1.757-2.032 0-22.459 20.523-24.723 24.84-.768 1.463-1.668 2.885-2 3.16-2.228 1.842.07 2.516 9.065 2.659l9.991.159 10.17-9.694c5.593-5.331 12.531-11.458 15.419-13.614 3.198-2.389 5.283-4.72 5.334-5.965.047-1.125.408-4.632.803-7.795.673-5.384.588-5.744-1.334-5.65-1.129.055-5.653 1.964-10.053 4.243m76.25 9.319c.688.278 1.813.278 2.5 0 .688-.277.125-.504-1.25-.504s-1.937.227-1.25.504m-48 7c.688.278 1.813.278 2.5 0 .688-.277.125-.504-1.25-.504s-1.937.227-1.25.504m7.5 2.027c.963.252 2.537.252 3.5 0 .963-.251.175-.457-1.75-.457s-2.713.206-1.75.457M41 80.559c0 .857.45 1.281 1 .941.55-.34 1-1.041 1-1.559S42.55 79 42 79s-1 .702-1 1.559m-2 4c0 .857.45 1.281 1 .941.55-.34 1-1.041 1-1.559S40.55 83 40 83s-1 .702-1 1.559m-1.985 4.691c.013 1.819.201 1.963.985.75 1.253-1.939 1.253-3 0-3-.55 0-.993 1.013-.985 2.25m28.271 9.25c.008 2.75.202 3.756.432 2.236.229-1.52.223-3.77-.014-5-.237-1.23-.425.014-.418 2.764m66.214 2.068c-1.1.828-7.062 6.278-13.25 12.111-9.915 9.348-11.25 10.998-11.25 13.905 0 4.426 1.795 5.335 2.188 1.108.265-2.844 2.273-5.189 13.308-15.546 11.842-11.113 13.252-12.141 15.875-11.564 1.979.434 2.665.286 2.195-.475-.986-1.595-6.72-1.303-9.066.461M34.232 104c0 1.925.206 2.713.457 1.75.252-.963.252-2.537 0-3.5-.251-.963-.457-.175-.457 1.75m110.581-2.317c.721.289 1.584.253 1.916-.079.332-.332-.258-.568-1.312-.525-1.165.048-1.402.285-.604.604m-112.734 12.9c.048 1.165.285 1.402.604.605.289-.722.253-1.585-.079-1.917-.332-.332-.568.258-.525 1.312m77.007 20.917c-.031 1.1.381 2.675.914 3.5.862 1.333.963 1.333.914 0-.03-.825-.441-2.4-.914-3.5l-.859-2-.055 2m87.42 65.494c-.999 1.103-1.489 2.006-1.09 2.006 1.055 0 3.905-3.012 3.364-3.554-.253-.252-1.276.444-2.274 1.548M192 205.5c-.685.825-.933 1.5-.551 1.5s1.369-.675 2.194-1.5 1.073-1.5.551-1.5c-.522 0-1.509.675-2.194 1.5m-120 8c0 .825.436 1.5.969 1.5.532 0 .709-.675.393-1.5-.317-.825-.753-1.5-.969-1.5-.216 0-.393.675-.393 1.5m75.75 13.162c.688.278 1.813.278 2.5 0 .688-.277.125-.504-1.25-.504s-1.937.227-1.25.504m-19.5 2.066c2.063.216 5.438.216 7.5 0 2.063-.215.375-.392-3.75-.392s-5.812.177-3.75.392" fill="#1976D2" fill-rule="evenodd"/><path fill-opacity=".272" d="M92 36.727c-2.885.872-11.966 5.408-12.475 6.232-.786 1.272 2.314 2.111 5.304 1.437 5.506-1.242 8.02-2.825 8.506-5.356.569-2.961.605-2.899-1.335-2.313m73.196 5.964c-.108 3.405-.588 6.433-1.066 6.729-.479.296-3.292 1.193-6.25 1.993-6.461 1.748-11.334 3.426-15.38 5.295-2.802 1.294-2.578 1.342 3.396.724l6.396-.662-.674 4.22c-.772 4.823-2.495 8.4-5.809 12.057-2.622 2.892-8.174 6.953-9.507 6.953-.489 0-1.605-1.912-2.48-4.25l-1.592-4.25.428 8.5c.235 4.675.649 10.332.92 12.572l.491 4.071 10.716 3.188c5.893 1.754 12.065 3.573 13.715 4.043 14.048 4.005 14.2 4.087 14.791 7.949.356 2.327.429 2.239.559-.675.111-2.471 2.423-6.541 8.806-15.5 4.761-6.681 8.812-12.336 9.002-12.566.19-.23 1.357.05 2.594.623 1.236.573 4.498 2.053 7.248 3.29 11.698 5.26 11.949 5.439 12.685 9.049a201.478 201.478 0 001.714 7.456c.555 2.2 1.48 5.912 2.055 8.25.575 2.338 1.477 5.938 2.003 8a389.621 389.621 0 012.101 8.842c1.056 4.7 1.34 5.055 3.68 4.607l2.535-.484-.539-10.108c-.488-9.166-3-22.584-4.7-25.107-.371-.55-1.247-2.822-1.947-5.048-1.097-3.485-5.558-10.725-4.9-7.952.486 2.051-2.493 5.32-4.114 4.515-.865-.43-2.698-1.238-4.073-1.796a299.615 299.615 0 01-6.151-2.617c-2.008-.881-4.483-1.61-5.5-1.619-1.017-.01-2.749-1.299-3.849-2.866-1.1-1.567-4.749-5.947-8.108-9.733-20.042-22.589-18.271-19.997-18.654-27.298l-.346-6.586-.196 6.191m-75.383-4.008c.721.289 1.584.253 1.916-.079.332-.332-.258-.568-1.312-.525-1.165.048-1.402.285-.604.604m-36.47 25.588c-2.218 2.326-5.034 5.693-6.259 7.483-1.964 2.872-2.036 3.327-.612 3.874.888.34 1.754.451 1.925.246C49.85 74.125 56 63.765 56 63.064c0-.494.563-1.098 1.25-1.344.688-.245.997-.723.688-1.062-.31-.339-2.377 1.287-4.595 3.613M175.232 119c0 1.925.206 2.713.457 1.75.252-.963.252-2.537 0-3.5-.251-.963-.457-.175-.457 1.75M74 118.34c6.345 1.926 9.71 3.382 10.4 4.498.748 1.21-12.152 12.737-15.811 14.128-1.495.569-3.639 1.034-4.764 1.034-1.747 0-1.984-.508-1.635-3.5.225-1.925.135-3.5-.199-3.5-.335 0-2.101 2.813-3.925 6.25-1.824 3.438-3.935 6.96-4.691 7.829-1.49 1.711-1.835 4.551-.619 5.088.416.183 3.847 3.933 7.626 8.333 3.778 4.4 9.175 10.627 11.994 13.838 6.197 7.061 7.542 9.34 7.589 12.853.019 1.48.485 2.969 1.035 3.309.55.34 1 1.915 1 3.5s.45 3.16 1 3.5c.55.34 1 1.459 1 2.488 0 1.028.674 2.543 1.497 3.366 2.732 2.732.735 4.334-6.943 5.573-4.031.65-7.603 1.455-7.937 1.789-1.504 1.505 17.409 11.855 27.575 15.09 9.988 3.178 15.251 4.194 21.719 4.194 4.358 0 5.92-.346 5.644-1.25-.21-.687-.638-2.73-.951-4.539-.476-2.748-.203-3.439 1.663-4.205 2.033-.834 1.964-.903-.767-.771-2.433.117-12.306-2.756-20.5-5.966-.825-.324-4.875-1.772-9-3.219-7.28-2.555-7.525-2.748-8.348-6.591-.467-2.177-1.254-4.74-1.75-5.695-.496-.955-.902-2.616-.902-3.691 0-1.075-.45-2.233-1-2.573-.55-.34-1-1.616-1-2.837 0-1.22-.641-3.134-1.425-4.253-2.238-3.195-1.661-3.631 13.425-10.129 1.925-.829 6.317-2.799 9.761-4.378 3.443-1.578 7.395-3.155 8.781-3.503 2.125-.533 2.287-.811 1.032-1.766-.936-.713-2.847-8.011-5.14-19.634-2.008-10.175-4.164-19.001-4.792-19.614-.628-.612-4.517-1.684-8.642-2.381-4.125-.697-9.75-1.66-12.5-2.139-2.75-.479-7.025-1.1-9.5-1.381l-4.5-.511 4.5 1.366m103.07 8.41c.054 2.856.255 3.277.845 1.766.715-1.829.359-5.516-.532-5.516-.21 0-.351 1.688-.313 3.75m1.674 5.475c-.573 1.492-.116 3.883 2.472 12.939 1.205 4.215 2.419 2.696-14.254 17.836-5.754 5.225-11.057 10.063-11.784 10.751-1.299 1.229-4.004 1.002-9.178-.769-9.405-3.22-20.218-6.077-21.719-5.739-1.24.28-.718.739 1.719 1.511 7.708 2.44 20.064 6.976 20.679 7.592.36.36 1.628.654 2.819.654 2.367 0 3.568 1.957 5.523 9 2.546 9.172 3.255 11.554 4.107 13.797 1.312 3.455 1.061 5.018-.878 5.485-.963.232-.168.241 1.766.021 1.933-.22 10.686-2.833 19.45-5.807 12.791-4.341 16.225-5.17 17.401-4.202 1.24 1.021 1.365.807.817-1.396-.356-1.43-.354-2.895.006-3.254.359-.36 2.987-7.644 5.84-16.188l5.188-15.535-4.609-2.055c-8.073-3.599-15.561-7.014-17.109-7.801-1.857-.944-3.482-4.198-5.027-10.065-1.978-7.508-2.515-8.636-3.229-6.775m38.335 10.358c.048 1.165.285 1.402.604.605.289-.722.253-1.585-.079-1.917-.332-.332-.568.258-.525 1.312m-4 7c.048 1.165.285 1.402.604.605.289-.722.253-1.585-.079-1.917-.332-.332-.568.258-.525 1.312m-175.329.14c1.788.222 4.712.222 6.5 0 1.788-.221.325-.403-3.25-.403s-5.038.182-3.25.403m80.519 15.97c.973.254 2.323.237 3-.037.677-.274-.119-.481-1.769-.461-1.65.02-2.204.244-1.231.498m33.544 41.99c.721.289 1.584.253 1.916-.079.332-.332-.258-.568-1.312-.525-1.165.048-1.402.285-.604.604M83.5 209.727c-4.375.623-5.284 2.025-2.098 3.236 5.659 2.151 11.506.209 7.813-2.596-.943-.717-1.94-1.25-2.215-1.185-.275.065-1.85.31-3.5.545m62.25-.065c.688.278 1.813.278 2.5 0 .688-.277.125-.504-1.25-.504s-1.937.227-1.25.504m-5 2c.688.278 1.813.278 2.5 0 .688-.277.125-.504-1.25-.504s-1.937.227-1.25.504m-4.937 2.021c.721.289 1.584.253 1.916-.079.332-.332-.258-.568-1.312-.525-1.165.048-1.402.285-.604.604m-6.063 1.979c.688.278 1.813.278 2.5 0 .688-.277.125-.504-1.25-.504s-1.937.227-1.25.504" fill="#1976D2" fill-rule="evenodd"/><path fill-opacity=".742" d="M160.45 51.915c-.522.504-2.075 1.131-3.45 1.395-1.375.263-.134.446 2.759.405 5.461-.076 6.335.488 9.363 6.051 1.015 1.866.937 2.888-.444 5.784-.923 1.935-1.678 4.425-1.678 5.534 0 2.943-2.554 7.401-5.199 9.076-1.265.802-4.551 2.291-7.301 3.31-2.75 1.019-7.011 3.611-9.469 5.76-2.458 2.149-5.72 4.158-7.25 4.464-3.165.633-3.774 2.306-.84 2.306 1.068 0 2.219.45 2.559 1 .34.55 1.498 1 2.573 1s2.736.395 3.691.877c1.717.868 4.492 1.718 13.236 4.056 2.475.661 5.882 1.622 7.571 2.135 6.415 1.947 6.703 1.778 13.484-7.935 2.445-3.502 5.908-8.444 7.695-10.982 1.787-2.538 3.25-4.919 3.25-5.291 0-1.021-8.406-11.277-17.301-21.11-7.714-8.528-10.698-10.292-13.249-7.835m60.3 51.774c-1.244.325-1.75 1.464-1.75 3.942 0 3.995 1.69 12.046 3.066 14.605.514.955.934 2.557.934 3.559 0 1.003.614 2.663 1.365 3.689 1.22 1.669 1.439 1.173 2.067-4.692.386-3.608.427-8.299.091-10.426-.827-5.225-2.709-11.392-3.433-11.25-.325.064-1.377.322-2.34.573m-120.253 21.3c.459 1.448-.899 4.023-4.983 9.449-6.728 8.939-13.419 14.745-20.706 17.968-4.849 2.145-5.754 2.255-9.098 1.105-2.043-.702-5.301-2.487-7.242-3.967-6.661-5.081-5.534-2.004 3.104 8.469 10.649 12.912 17.37 20.134 18.256 19.616.37-.215 2.922-1.395 5.672-2.622 27.332-12.194 26.55-11.746 25.469-14.587-.533-1.403-.969-4.089-.969-5.971 0-1.881-.432-5.339-.959-7.685-.528-2.345-1.461-6.964-2.075-10.264-1.951-10.497-3.106-13.5-5.193-13.5-1.449 0-1.756.478-1.276 1.989m79.568 28.1c-2.08 2.177-2.783 3.593-2.114 4.262.669.669 1.617.445 2.854-.675 2.268-2.052 5.543-2.166 7.135-.248 2.559 3.083-5.79 14.373-13.374 18.083-6.193 3.03-13.37 3.591-14.735 1.151-.75-1.339-1.348-1.456-2.981-.582-1.661.889-1.947 1.78-1.528 4.757.797 5.667 5.312 23.131 6.213 24.032.249.248 3.943-.714 8.209-2.14 11.935-3.989 25.719-8.864 26.083-9.226 1.319-1.308 11.426-32.583 10.75-33.26-.727-.726-18.433-8.169-20.919-8.793-1.945-.488-3.146.079-5.593 2.639M93 209.82c3.198 1.45 6 3.714 6 4.849 0 2.054-3.034 4.33-5.821 4.366l-2.679.036 2.5 1.447c5.502 3.185 15.231 5.482 23.222 5.482 7.82 0 7.997-.054 7.408-2.25-.331-1.238-.609-2.602-.616-3.032-.033-1.855-25.764-11.845-30.002-11.648-1.338.062-1.339.149-.012.75" fill="#1976D2" fill-rule="evenodd"/></svg>